<svg width="189" height="32" viewBox="0 0 189 32" fill="none" xmlns="http://www.w3.org/2000/svg">
<rect x="141" y="6" width="48" height="20" rx="6" fill="#F6D891"/>
<path d="M147.861 20H151.394C153.392 20 154.372 18.9815 154.372 17.6221C154.372 16.3011 153.435 15.5255 152.506 15.4787V15.3934C153.358 15.1932 154.031 14.5966 154.031 13.5355C154.031 12.2358 153.094 11.2727 151.202 11.2727H147.861V20ZM149.442 18.679V16.1221H151.185C152.161 16.1221 152.766 16.7187 152.766 17.4986C152.766 18.1932 152.288 18.679 151.142 18.679H149.442ZM149.442 14.9844V12.5767H151.04C151.969 12.5767 152.45 13.0667 152.45 13.74C152.45 14.5071 151.828 14.9844 151.006 14.9844H149.442Z" fill="#3D3D3D"/>
<path d="M157.248 20H162.958V18.6747H158.829V16.2926H162.63V14.9673H158.829V12.598H162.924V11.2727H157.248V20Z" fill="#3D3D3D"/>
<path d="M165.653 12.598H168.351V20H169.919V12.598H172.616V11.2727H165.653V12.598Z" fill="#3D3D3D"/>
<path d="M175.525 20L176.245 17.848H179.526L180.25 20H181.938L178.861 11.2727H176.909L173.837 20H175.525ZM176.671 16.5781L177.851 13.0625H177.919L179.1 16.5781H176.671Z" fill="#3D3D3D"/>
<path d="M55.6758 13.4883V6.33789H59.2441V25H55.6758V23.3047C55.1654 24.0065 54.6504 24.4987 54.1309 24.7812C53.3197 25.2279 52.3854 25.4512 51.3281 25.4512C49.3229 25.4512 47.7188 24.763 46.5156 23.3867C45.4492 22.1745 44.916 20.5931 44.916 18.6426C44.916 16.4186 45.6087 14.6641 46.9941 13.3789C48.2702 12.194 49.7376 11.6016 51.3965 11.6016C52.2715 11.6016 53.0462 11.752 53.7207 12.0527C54.3952 12.3444 55.0469 12.8229 55.6758 13.4883ZM52.2305 14.5957C51.0182 14.5957 50.0749 15.1152 49.4004 16.1543C48.9355 16.8743 48.7031 17.7083 48.7031 18.6562C48.7031 19.8594 49.0586 20.821 49.7695 21.541C50.444 22.2337 51.2552 22.5801 52.2031 22.5801C53.2878 22.5801 54.1628 22.1426 54.8281 21.2676C55.3932 20.5293 55.6758 19.6497 55.6758 18.6289C55.6758 17.4622 55.3522 16.5007 54.7051 15.7441C54.0579 14.9785 53.2331 14.5957 52.2305 14.5957Z" fill="#323232"/>
<path d="M75.2598 19.3672H65.1289C65.2474 20.0781 65.5026 20.6569 65.8945 21.1035C66.569 21.8874 67.444 22.2793 68.5195 22.2793C69.1758 22.2793 69.7682 22.1289 70.2969 21.8281C70.8255 21.5273 71.2311 21.1172 71.5137 20.5977L74.7676 21.5C74.2572 22.5117 73.6055 23.3275 72.8125 23.9473C71.5273 24.9499 70.0827 25.4512 68.4785 25.4512C66.3275 25.4512 64.5592 24.7174 63.1738 23.25C62.0072 22.0195 61.4238 20.4382 61.4238 18.5059C61.4238 17.2663 61.6927 16.1178 62.2305 15.0605C62.7865 13.9577 63.5931 13.1055 64.6504 12.5039C65.7077 11.9023 66.9108 11.6016 68.2598 11.6016C70.5566 11.6016 72.375 12.4128 73.7148 14.0352C74.7539 15.293 75.2734 16.8379 75.2734 18.6699C75.2734 18.834 75.2689 19.0664 75.2598 19.3672ZM71.6094 17.3301C71.4909 16.6465 71.2448 16.0996 70.8711 15.6895C70.224 14.9694 69.3672 14.6094 68.3008 14.6094C67.4531 14.6094 66.7513 14.8464 66.1953 15.3203C65.6484 15.7852 65.2884 16.4551 65.1152 17.3301H71.6094Z" fill="#323232"/>
<path d="M86.2305 15.7852H82.8672C82.8763 15.6849 82.8809 15.6074 82.8809 15.5527C82.8809 15.1699 82.7259 14.8555 82.416 14.6094C82.1061 14.3542 81.7188 14.2266 81.2539 14.2266C80.8164 14.2266 80.4655 14.3359 80.2012 14.5547C79.946 14.7643 79.8184 15.0469 79.8184 15.4023C79.8184 15.7578 79.9414 16.0312 80.1875 16.2227C80.388 16.3867 80.5794 16.5052 80.7617 16.5781C80.9531 16.651 81.4909 16.8242 82.375 17.0977C83.806 17.5352 84.7995 18.0273 85.3555 18.5742C86.0755 19.2669 86.4355 20.1602 86.4355 21.2539C86.4355 22.6211 85.8932 23.7012 84.8086 24.4941C83.9336 25.1322 82.7943 25.4512 81.3906 25.4512C79.4857 25.4512 78.0775 24.8678 77.166 23.7012C76.6374 23.0267 76.3503 22.1927 76.3047 21.1992H79.7227C79.8776 22.2839 80.4427 22.8262 81.418 22.8262C81.8281 22.8262 82.1654 22.7122 82.4297 22.4844C82.7031 22.2474 82.8398 21.9512 82.8398 21.5957C82.8398 21.2038 82.6758 20.8893 82.3477 20.6523C82.0195 20.4154 81.3815 20.1556 80.4336 19.873C79.0664 19.4538 78.0638 18.9251 77.4258 18.2871C76.7331 17.6035 76.3867 16.7467 76.3867 15.7168C76.3867 14.304 76.9564 13.224 78.0957 12.4766C78.998 11.8932 80.1009 11.6016 81.4043 11.6016C83.2546 11.6016 84.6217 12.1986 85.5059 13.3926C85.9616 14.0124 86.2031 14.8099 86.2305 15.7852Z" fill="#323232"/>
<path d="M92.1562 12.0527V25H88.5879V12.0527H92.1562ZM90.3789 6.36523C90.944 6.36523 91.4089 6.55664 91.7734 6.93945C92.1471 7.31315 92.334 7.79167 92.334 8.375C92.334 8.92188 92.1426 9.38216 91.7598 9.75586C91.3861 10.1296 90.9212 10.3164 90.3652 10.3164C89.7637 10.3164 89.2806 10.1159 88.916 9.71484C88.5697 9.33203 88.3965 8.8763 88.3965 8.34766C88.3965 7.77344 88.5833 7.29948 88.957 6.92578C89.3307 6.55208 89.8047 6.36523 90.3789 6.36523Z" fill="#323232"/>
<path d="M104.74 13.6523V12.0527H108.24V24.0566C108.24 25.8522 107.99 27.2194 107.488 28.1582C106.905 29.252 106.003 30.0859 104.781 30.6602C103.706 31.1615 102.493 31.4121 101.145 31.4121C98.638 31.4121 96.5143 30.5553 94.7734 28.8418L96.9746 26.5996C98.0866 27.8027 99.4264 28.4043 100.994 28.4043C102.215 28.4043 103.154 28.0534 103.811 27.3516C104.43 26.6862 104.74 25.7565 104.74 24.5625V23.2363C103.574 24.7129 102.051 25.4512 100.174 25.4512C99.071 25.4512 98.041 25.1595 97.084 24.5762C95.0514 23.3457 94.0352 21.3587 94.0352 18.6152C94.0352 17.2845 94.3223 16.0449 94.8965 14.8965C95.4251 13.821 96.1908 13.0007 97.1934 12.4355C98.1595 11.8796 99.276 11.6016 100.543 11.6016C101.445 11.6016 102.229 11.7656 102.895 12.0938C103.569 12.4219 104.184 12.9414 104.74 13.6523ZM101.295 14.7734C100.137 14.7734 99.2214 15.2155 98.5469 16.0996C98.0638 16.7376 97.8223 17.526 97.8223 18.4648C97.8223 19.6862 98.2051 20.6569 98.9707 21.377C99.6178 21.9785 100.397 22.2793 101.309 22.2793C102.411 22.2793 103.305 21.8828 103.988 21.0898C104.444 20.5703 104.672 19.8001 104.672 18.7793C104.672 17.4212 104.353 16.4232 103.715 15.7852C103.04 15.1107 102.234 14.7734 101.295 14.7734Z" fill="#323232"/>
<path d="M111.268 12.0527H114.836V13.6387C115.255 12.9733 115.674 12.4993 116.094 12.2168C116.714 11.8066 117.456 11.6016 118.322 11.6016C119.635 11.6016 120.701 12.0026 121.521 12.8047C121.959 13.2331 122.26 13.7389 122.424 14.3223C122.597 14.9056 122.684 15.735 122.684 16.8105V25H119.115V16.9883C119.115 16.3047 119.01 15.7988 118.801 15.4707C118.436 14.8965 117.871 14.6094 117.105 14.6094C116.431 14.6094 115.884 14.8464 115.465 15.3203C115.046 15.7852 114.836 16.3913 114.836 17.1387V25H111.268V12.0527Z" fill="#323232"/>
<path fill-rule="evenodd" clip-rule="evenodd" d="M2.56 0H13.44C14.8538 0 16 1.14615 16 2.56V7.04C16 7.57019 15.5702 8 15.04 8H0.96C0.429807 8 0 7.57019 0 7.04V2.56C0 1.14615 1.14615 0 2.56 0ZM1 11H29.44C30.8539 11 32 12.5862 32 14V22.9956C32 23.5257 31.5258 24 30.9956 24H2.56C1.14615 24 0 22.8094 0 21.3956V12C0 11.4698 0.469807 11 1 11ZM16.96 27H31.04C31.5702 27 32 27.4298 32 27.96V29.6C32 30.9255 30.9255 32 29.6 32H18.4C17.0745 32 16 30.9255 16 29.6V27.96C16 27.4298 16.4298 27 16.96 27Z" fill="#323232"/>
</svg>
