<svg width="219" height="40" viewBox="0 0 219 40" fill="none" xmlns="http://www.w3.org/2000/svg">
<path fill-rule="evenodd" clip-rule="evenodd" d="M0 10.4434C0 9.094 1.12526 8 2.51326 8H12.1534C13.5414 8 14.6667 9.094 14.6667 10.4434V12.1117C14.6667 12.7863 14.104 13.3333 13.4101 13.3333H1.25657C0.562629 13.3333 0 12.7863 0 12.1117V10.4434ZM5.08626e-06 17.2217C5.08626e-06 16.547 0.562634 16 1.25658 16H24.1534C25.5414 16 26.6667 17.094 26.6667 18.4434L26.6667 24.1117C26.6667 24.7863 26.104 25.3333 25.4101 25.3333H2.51326C1.12526 25.3333 0 24.2393 0 22.8899L5.08626e-06 17.2217ZM13.2566 28C12.5626 28 12 28.547 12 29.2217V30.001C12 31.3504 13.1253 32 14.5133 32H24.1534C25.5414 32 26.6667 31.3504 26.6667 30.001V29.2217C26.6667 28.547 26.104 28 25.4101 28H13.2566Z" fill="#111111"/>
<path d="M39.0054 30.6666H46.4854C53.1734 30.6666 57.2507 26.56 57.2507 20.136C57.2507 13.712 53.1734 9.60529 46.4854 9.60529H39.0054V30.6666ZM43.7867 26.5306V13.7413H46.456C50.2694 13.7413 52.4107 16.264 52.4107 20.136C52.4107 24.008 50.2694 26.5306 46.4854 26.5306H43.7867Z" fill="#111111"/>
<path d="M66.5223 30.9893C69.6023 30.9893 72.4183 29.4346 73.5623 26.472L69.6317 25.2106C69.1917 26.56 68.0477 27.264 66.581 27.264C64.7917 27.264 63.5303 26.0613 63.2077 23.9493H73.6797V22.7173C73.6797 18.3466 71.1277 14.8853 66.4343 14.8853C61.9757 14.8853 58.6903 18.3466 58.6903 22.9226C58.6903 27.7333 61.8583 30.9893 66.5223 30.9893ZM66.3757 18.5226C68.1063 18.5226 69.0157 19.696 69.045 21.0746H63.3543C63.8237 19.3733 64.9383 18.5226 66.3757 18.5226Z" fill="#111111"/>
<path d="M74.4611 28.408C75.8985 30.08 78.9491 30.9893 81.6478 30.9893C85.5785 30.9893 88.6878 29.024 88.6878 25.6506C88.6878 22.16 85.5785 21.4853 82.7918 20.928C80.9145 20.576 80.0051 20.4586 80.0051 19.608C80.0051 18.904 80.7385 18.464 81.8825 18.464C83.4078 18.464 84.9331 19.1386 86.1065 20.3706L88.4531 17.3493C87.1625 15.9413 84.6985 14.8853 81.9118 14.8853C78.0985 14.8853 75.3118 16.968 75.3118 20.1066C75.3118 23.4506 78.0398 24.1253 80.5918 24.624C83.0558 25.064 84.0825 25.1813 84.0825 26.208C84.0825 27.0293 83.0558 27.44 81.8238 27.44C80.1518 27.44 78.1571 26.6186 76.8958 25.24L74.4611 28.408Z" fill="#111111"/>
<path d="M90.7643 13.624H95.5456V9.60529H90.7643V13.624ZM95.4869 15.208H90.7936V30.6666H95.4869V15.208Z" fill="#111111"/>
<path d="M113.341 28.8186V15.208H108.618V16.7333C107.885 15.7066 106.301 14.8853 104.453 14.8853C100.229 14.8853 97.794 18.3173 97.794 22.5413C97.794 26.7653 100.229 30.168 104.453 30.168C106.301 30.168 107.885 29.376 108.618 28.3493V29.3466C108.618 31.6346 107.269 32.6026 105.362 32.6026C103.807 32.6026 102.693 31.8106 102.311 30.4906L97.8526 31.5466C98.674 34.568 101.373 36.152 105.215 36.152C109.967 36.152 113.341 33.6 113.341 28.8186ZM108.677 22.3066V22.776C108.677 25.0346 107.415 26.296 105.655 26.296C103.661 26.296 102.575 24.8 102.575 22.512C102.575 20.224 103.661 18.7573 105.655 18.7573C107.415 18.7573 108.677 20.0186 108.677 22.3066Z" fill="#111111"/>
<path d="M116.432 30.6666H121.125V21.8373C121.125 20.0186 122.386 19.1093 123.677 19.1093C125.202 19.1093 125.848 20.2533 125.848 21.808V30.6666H130.541V20.4586C130.541 17.0853 128.546 14.8853 125.378 14.8853C123.413 14.8853 121.976 15.7653 121.125 16.7626V15.208H116.432V30.6666Z" fill="#111111"/>
<rect x="147" y="12" width="72" height="20" rx="4" fill="#FCEFFC"/>
<path d="M155.156 22.942H156.905C158.665 22.942 159.765 22.095 159.765 20.522C159.765 18.927 158.665 18.102 156.905 18.102H153.748V26H155.156V22.942ZM155.156 21.732V19.312H156.828C157.84 19.312 158.379 19.741 158.379 20.522C158.379 21.292 157.84 21.732 156.828 21.732H155.156ZM164.106 22.942H165.382L167.307 26H168.913L166.878 22.832C168.033 22.557 168.715 21.765 168.715 20.522C168.715 18.927 167.615 18.102 165.855 18.102H162.698V26H164.106V22.942ZM164.106 21.732V19.312H165.778C166.79 19.312 167.329 19.741 167.329 20.522C167.329 21.292 166.79 21.732 165.778 21.732H164.106ZM171.885 18.102V26H177.231V24.768H173.271V22.546H176.604V21.314H173.271V19.334H177.231V18.102H171.885ZM184.2 26L187.115 18.102H185.663L183.474 24.24L181.296 18.102H179.778L182.715 26H184.2ZM191.376 18.102H189.968V26H191.376V18.102ZM194.868 18.102V26H200.214V24.768H196.254V22.546H199.587V21.314H196.254V19.334H200.214V18.102H194.868ZM207.172 18.102L205.709 23.899L204.213 18.102H202.761L204.906 26H206.292L207.777 20.434L209.273 26H210.659L212.793 18.102H211.385L209.889 23.899L208.415 18.102H207.172Z" fill="#9846A4"/>
</svg>
