<svg width="32" height="32" viewBox="0 0 32 32" fill="none" xmlns="http://www.w3.org/2000/svg">
<path opacity="0.2" d="M26.2555 26.2532C28.4034 24.1054 25.5542 17.7737 19.8916 12.1111C14.229 6.4485 7.89732 3.59926 5.74944 5.74714C3.60156 7.89503 6.4508 14.2267 12.1134 19.8893C17.776 25.5519 24.1077 28.4011 26.2555 26.2532Z" fill="#999999"/>
<path fill-rule="evenodd" clip-rule="evenodd" d="M6.91432 11.0898C8.00464 13.5128 10.0522 16.414 12.8204 19.1822C15.5886 21.9503 18.4898 23.9979 20.9128 25.0883C22.1277 25.635 23.1723 25.9183 23.9902 25.9628C24.8088 26.0073 25.283 25.8115 25.5483 25.5461C25.8137 25.2808 26.0095 24.8066 25.965 23.988C25.9205 23.1701 25.6372 22.1255 25.0905 20.9106C24.0001 18.4876 21.9525 15.5864 19.1844 12.8182C16.4162 10.05 13.515 8.00244 11.092 6.91211C9.87711 6.3654 8.83252 6.0821 8.01456 6.03759C7.19595 5.99305 6.7218 6.18891 6.45645 6.45425C6.19111 6.71959 5.99525 7.19375 6.0398 8.01235C6.0843 8.83032 6.3676 9.87491 6.91432 11.0898ZM4.04275 8.12102C3.9802 6.97139 4.23364 5.84863 5.04224 5.04004C5.85084 4.23144 6.97359 3.97799 8.12322 4.04055C9.27349 4.10314 10.5685 4.48333 11.9128 5.08827C14.6083 6.30125 17.7042 8.50957 20.5986 11.404C23.493 14.2984 25.7013 17.3943 26.9143 20.0898C27.5193 21.4341 27.8994 22.7291 27.962 23.8794C28.0246 25.029 27.7711 26.1517 26.9625 26.9603C26.154 27.7689 25.0312 28.0224 23.8816 27.9598C22.7313 27.8972 21.4363 27.5171 20.092 26.9121C17.3965 25.6991 14.3006 23.4908 11.4062 20.5964C8.51177 17.702 6.30345 14.6061 5.09047 11.9106C4.48553 10.5662 4.10534 9.27129 4.04275 8.12102Z" fill="#999999"/>
<path fill-rule="evenodd" clip-rule="evenodd" d="M6.0398 23.9876C5.99525 24.8063 6.19111 25.2804 6.45645 25.5458C6.7218 25.8111 7.19595 26.0069 8.01456 25.9624C8.83252 25.9179 9.87711 25.6346 11.092 25.0879C13.515 23.9976 16.4162 21.95 19.1844 19.1818C21.9525 16.4136 24.0001 13.5124 25.0905 11.0894C25.6372 9.87453 25.9205 8.82993 25.965 8.01197C26.0095 7.19337 25.8137 6.71921 25.5483 6.45387C25.283 6.18852 24.8088 5.99267 23.9902 6.03721C23.1723 6.08172 22.1277 6.36502 20.9128 6.91173C18.4898 8.00206 15.5886 10.0497 12.8204 12.8178C10.0522 15.586 8.00464 18.4872 6.91432 20.9102C6.3676 22.1251 6.0843 23.1697 6.0398 23.9876ZM5.09047 20.0894C6.30345 17.3939 8.51177 14.298 11.4062 11.4036C14.3006 8.50918 17.3965 6.30086 20.092 5.08789C21.4363 4.48295 22.7313 4.10275 23.8816 4.04016C25.0312 3.97761 26.154 4.23105 26.9625 5.03965C27.7711 5.84825 28.0246 6.97101 27.962 8.12064C27.8994 9.27091 27.5193 10.5659 26.9143 11.9102C25.7013 14.6057 23.493 17.7016 20.5986 20.596C17.7042 23.4904 14.6083 25.6988 11.9128 26.9117C10.5685 27.5167 9.27349 27.8969 8.12322 27.9595C6.97359 28.022 5.85084 27.7686 5.04224 26.96C4.23364 26.1514 3.9802 25.0286 4.04275 23.879C4.10534 22.7287 4.48553 21.4338 5.09047 20.0894Z" fill="#999999"/>
<path d="M16 17.5C16.8284 17.5 17.5 16.8284 17.5 16C17.5 15.1716 16.8284 14.5 16 14.5C15.1716 14.5 14.5 15.1716 14.5 16C14.5 16.8284 15.1716 17.5 16 17.5Z" fill="#999999"/>
</svg>
