<svg width="32" height="32" viewBox="0 0 32 32" fill="none" xmlns="http://www.w3.org/2000/svg">
<path opacity="0.2" d="M27.7 18.6751C27.9073 17.7648 28.008 16.8336 28 15.9001C27.95 9.28755 22.475 3.93755 15.875 4.00005C13.0554 4.02979 10.3363 5.05147 8.19484 6.88586C6.05337 8.72026 4.62626 11.2502 4.16391 14.0317C3.70155 16.8133 4.23349 19.6689 5.66639 22.0974C7.09928 24.5259 9.34161 26.3723 12 27.3126C12.4522 27.4755 12.937 27.5268 13.4133 27.4624C13.8896 27.3979 14.3433 27.2194 14.7359 26.9421C15.1285 26.6649 15.4485 26.2969 15.6685 25.8696C15.8886 25.4423 16.0023 24.9682 16 24.4876V24.0001C15.9983 23.6056 16.0748 23.2148 16.225 22.85C16.3751 22.4853 16.596 22.154 16.875 21.875C17.1539 21.5961 17.4852 21.3752 17.85 21.225C18.2147 21.0749 18.6055 20.9984 19 21.0001H24.775C25.4536 21.0005 26.1123 20.7708 26.6436 20.3485C27.1749 19.9262 27.5473 19.3363 27.7 18.6751V18.6751Z" fill="#999999"/>
<path fill-rule="evenodd" clip-rule="evenodd" d="M15.8655 3.0001C23.0153 2.93239 28.9451 8.72352 28.9999 15.8914C29.0086 16.9026 28.8996 17.9113 28.675 18.8972L27.7 18.6751L28.6743 18.9001C28.4707 19.7817 27.9742 20.5683 27.2659 21.1313C26.5575 21.6944 25.6792 22.0006 24.7743 22.0001L24.775 21.0001V22.0001H24.7743H19L18.9958 22C18.7334 21.9989 18.4733 22.0498 18.2307 22.1497C17.9881 22.2496 17.7676 22.3966 17.5821 22.5822C17.3965 22.7677 17.2495 22.9882 17.1496 23.2308C17.0497 23.4734 16.9989 23.7335 17 23.9959L17 24.0001V24.4853C17 24.4845 17 24.4836 17 24.4828L16 24.4876H17V24.4853C17.0026 25.126 16.8509 25.7579 16.5576 26.3275C16.2638 26.8978 15.8368 27.3889 15.3128 27.759C14.7888 28.1291 14.1832 28.3673 13.5475 28.4533C12.9128 28.5392 12.2667 28.471 11.664 28.2544C11.6648 28.2547 11.6657 28.255 11.6665 28.2553L12 27.3126L11.661 28.2534C11.662 28.2537 11.663 28.2541 11.664 28.2544C8.78523 27.2355 6.35699 25.2357 4.80513 22.6056C3.25283 19.9747 2.67656 16.8811 3.17744 13.8678C3.67832 10.8544 5.22436 8.11366 7.54429 6.12641C9.86423 4.13915 12.8099 3.03232 15.8644 3.00011L15.8655 3.0001ZM26.7253 18.4514C26.9152 17.6174 27.0074 16.764 27 15.9087L27 15.9076C26.9542 9.85117 21.9346 4.94298 15.8849 5.00001C13.3005 5.02739 10.8083 5.96393 8.8454 7.64533C6.88238 9.32685 5.5742 11.6459 5.15037 14.1957C4.72655 16.7455 5.21416 19.3631 6.52765 21.5892C7.84114 23.8154 9.89661 25.5079 12.3334 26.3698L12.3389 26.3717C12.6397 26.4801 12.9623 26.5143 13.2791 26.4714C13.596 26.4285 13.8979 26.3098 14.1591 26.1253C14.4202 25.9408 14.6331 25.6961 14.7795 25.4118C14.9259 25.1275 15.0015 24.8121 15 24.4923L15 24.4876V24.002C14.9981 23.4763 15.1001 22.9554 15.3003 22.4693C15.5007 21.9825 15.7956 21.5402 16.1678 21.1679C16.5401 20.7957 16.9824 20.5008 17.4692 20.3004C17.9553 20.1002 18.4762 19.9982 19.0019 20.0001H24.7756C25.228 20.0003 25.6672 19.8472 26.0214 19.5657C26.3752 19.2845 26.6233 18.8917 26.7253 18.4514Z" fill="#999999"/>
<path d="M16 11C16.8284 11 17.5 10.3284 17.5 9.5C17.5 8.67157 16.8284 8 16 8C15.1716 8 14.5 8.67157 14.5 9.5C14.5 10.3284 15.1716 11 16 11Z" fill="#999999"/>
<path d="M10.375 14.25C11.2034 14.25 11.875 13.5784 11.875 12.75C11.875 11.9216 11.2034 11.25 10.375 11.25C9.54657 11.25 8.875 11.9216 8.875 12.75C8.875 13.5784 9.54657 14.25 10.375 14.25Z" fill="#999999"/>
<path d="M10.375 20.75C11.2034 20.75 11.875 20.0784 11.875 19.25C11.875 18.4216 11.2034 17.75 10.375 17.75C9.54657 17.75 8.875 18.4216 8.875 19.25C8.875 20.0784 9.54657 20.75 10.375 20.75Z" fill="#999999"/>
<path d="M21.625 14.25C22.4534 14.25 23.125 13.5784 23.125 12.75C23.125 11.9216 22.4534 11.25 21.625 11.25C20.7966 11.25 20.125 11.9216 20.125 12.75C20.125 13.5784 20.7966 14.25 21.625 14.25Z" fill="#999999"/>
</svg>
